<svg width="147" height="23" viewBox="0 0 147 23" xmlns="http://www.w3.org/2000/svg"><title>logo-yellowtail-white</title><path d="M0 21.954V2.373h4.166v1.694h-2.16v16.181h2.16v1.706zm17.506-3.074c-1.162 3.12-2.143 4.079-4.385 4.079-.403 0-.943-.063-1.344-.138l.16-1.893c.443.165.84.223 1.304.223 1 0 1.557-.466 2.184-2.166l.395-1.068-3.72-9.98h2.399L16.12 12.5c.325.885.562 1.762.783 2.606h.02c.203-.8.624-2.106.985-3.111l1.42-4.057h2.305l-4.128 10.944zm11.718-9.562c-1.202 0-2.044.891-2.223 2.235h4.225c.041-1.368-.742-2.235-2.002-2.235m4.083 3.738h-6.346c-.062 2.313.959 3.356 2.944 3.356 1.02 0 2.079-.239 2.899-.648l.204 1.719c-1.003.416-2.224.632-3.446.632-3.102 0-4.807-1.607-4.807-5.117 0-3.013 1.64-5.26 4.55-5.26 2.841 0 4.063 1.945 4.063 4.317a8.577 8.577 0 0 1-.061 1.001m7.153 4.861h-2.144V4.924a18.82 18.82 0 0 0-1.747-.196v-1.33c1.123-.123 2.587-.201 3.892-.138v14.657zm8.012 0h-2.14V4.924a19.07 19.07 0 0 0-1.747-.196v-1.33c1.12-.123 2.583-.201 3.887-.138v14.657zm9.471-8.367c-1.3 0-2.564.995-2.564 3.284 0 2.253.884 3.441 2.548 3.441 1.378 0 2.537-1.086 2.537-3.396 0-2.126-.813-3.328-2.52-3.328m-.217 8.566c-2.77 0-4.57-1.546-4.57-5.06 0-3.019 1.937-5.318 4.965-5.318 2.666 0 4.545 1.485 4.545 5 0 3.076-1.997 5.378-4.94 5.378m20.525-.2h-2.358l-1.726-5.22c-.22-.659-.4-1.346-.583-2.108h-.018c-.2.882-.42 1.667-.68 2.515l-1.5 4.813H69.12l-3.064-9.98H68.4l1.324 4.637c.26.945.543 1.893.743 2.794h.018c.196-.987.44-1.87.701-2.73l1.48-4.702h2.166l1.507 4.617c.375 1.21.578 1.951.776 2.815h.019a31.34 31.34 0 0 1 .703-2.711l1.383-4.72h2.222l-3.189 9.98zm17.549.179c-2.124 0-2.767-.82-2.767-3.05V9.601h-1.902V7.938h1.902V4.763l2.124-.582v3.757h2.626v1.664H95.18v4.781c0 1.489.3 1.894 1.3 1.894a5.34 5.34 0 0 0 1.305-.168v1.768c-.582.119-1.324.219-1.983.219m11.852-4.696c-3.124 0-3.802.943-3.802 1.805 0 .741.523 1.226 1.366 1.226 1.459 0 2.437-1.403 2.437-2.827V13.4h-.001zm.145 4.517c0-.642.02-1.302.103-1.846l-.026-.018c-.481 1.187-1.72 2.064-3.305 2.064-1.702 0-2.782-.964-2.782-2.55 0-2.29 2.283-3.609 5.864-3.609v-.643c0-1.251-.514-1.893-2.08-1.893-.92 0-2.124.28-2.963.808l-.199-1.832a9.888 9.888 0 0 1 3.505-.659c3.043 0 3.886 1.323 3.886 3.374v5.141a23.04 23.04 0 0 0 1.742.2v1.326c-1.122.119-2.585.203-3.745.137zm9.652-11.469c-.738 0-1.362-.596-1.362-1.34 0-.746.624-1.35 1.362-1.35.766 0 1.38.586 1.38 1.35 0 .744-.614 1.34-1.38 1.34zm1.066 11.47h-2.124V9.6a21.43 21.43 0 0 0-1.743-.194V8.08a25.999 25.999 0 0 1 3.868-.142v9.98h-.001zm8.008-.001h-2.146V4.924a18.766 18.766 0 0 0-1.738-.196v-1.33c1.121-.123 2.58-.201 3.885-.138v14.657h-.001zm8.712 4.037v-1.706h2.16V4.067h-2.16V2.373h4.166v19.58zm8.806-19.604h.307c.358 0 .662-.13.662-.464 0-.24-.172-.48-.662-.48-.136 0-.234.01-.307.024v.92zm0 1.498h-.434V1.137c.227-.034.444-.068.767-.068.41 0 .676.085.84.207.163.12.247.304.247.564 0 .358-.237.573-.53.656v.024c.239.039.405.262.457.661.063.42.13.577.17.666h-.454c-.064-.089-.125-.331-.183-.69-.063-.344-.237-.47-.579-.47h-.3v1.161h-.001zm.45-3.47c-1.07 0-1.94.92-1.94 2.057 0 1.155.87 2.066 1.948 2.066 1.083.012 1.945-.91 1.945-2.054 0-1.15-.862-2.07-1.945-2.07h-.008zM144.5 0c1.328 0 2.388 1.08 2.388 2.435 0 1.374-1.06 2.445-2.396 2.445-1.326 0-2.403-1.07-2.403-2.445A2.413 2.413 0 0 1 144.493 0h.008z" fill="#FFF" fill-rule="evenodd"/></svg>